<svg width="30" height="30" viewBox="0 0 30 30" fill="none" xmlns="http://www.w3.org/2000/svg">
<path d="M21.5 2.5C24.3284 2.5 25.7424 2.50023 26.6211 3.37891C27.4998 4.25759 27.5 5.67157 27.5 8.5V21.5C27.5 24.3284 27.4998 25.7424 26.6211 26.6211C25.7424 27.4998 24.3284 27.5 21.5 27.5H8.5C5.67157 27.5 4.25759 27.4998 3.37891 26.6211C2.50023 25.7424 2.5 24.3284 2.5 21.5V8.5C2.5 5.67157 2.50023 4.25759 3.37891 3.37891C4.25759 2.50023 5.67157 2.5 8.5 2.5H21.5ZM21.8047 10.418C21.3452 10.1116 20.7243 10.2358 20.418 10.6953L16.374 16.7617L15.415 14.8438C14.7282 13.4705 12.8137 13.3513 11.9619 14.6289L7.91797 20.6953C7.61162 21.1548 7.73579 21.7757 8.19531 22.082C8.65484 22.3884 9.27568 22.2642 9.58203 21.8047L13.626 15.7383L14.585 17.6562C15.2718 19.0295 17.1863 19.1487 18.0381 17.8711L22.082 11.8047C22.3884 11.3452 22.2642 10.7243 21.8047 10.418Z" fill="#26D07C"/>
</svg>
