<svg width="112" height="32" viewBox="0 0 112 32" fill="none" xmlns="http://www.w3.org/2000/svg">
<path d="M111.389 14.5105H98.8848V18.6345H111.389V14.5105Z" fill="#0762C7"/>
<path d="M106.721 1.31952L95.8926 7.53442L97.9669 11.1059L108.796 4.891L106.721 1.31952Z" fill="#26D07C"/>
<path d="M97.9688 22.0386L95.8945 25.61L106.723 31.825L108.798 28.2535L97.9688 22.0386Z" fill="#FF9E1B"/>
<path d="M37.7387 17.3997C37.7387 20.3863 35.3036 22.8069 32.2991 22.8069C29.2947 22.8069 26.8596 20.3863 26.8596 17.3997V6.21509H22.7109V17.3997C22.7109 22.6643 27.0039 26.9317 32.2999 26.9317C37.596 26.9317 41.8881 22.6643 41.8881 17.3997V6.21509H37.7395V17.3997H37.7387Z" fill="white"/>
<path d="M10.4198 6.21491H6.2712V10.3389H10.4198V10.3579C13.8732 10.3579 16.6719 13.1408 16.6719 16.5728C16.6719 20.0048 13.8724 22.7877 10.4198 22.7877C6.96729 22.7877 4.16777 20.0056 4.16777 16.5728H4.14864V0H0V16.5728C0 22.2931 4.66532 26.9307 10.4198 26.9307C16.1743 26.9307 20.8397 22.2931 20.8397 16.5728C20.8397 10.8525 16.1751 6.21491 10.4198 6.21491Z" fill="white"/>
<path d="M61.6698 6.21491H57.5212V10.3389H61.6698V10.3579C65.1224 10.3579 67.9219 13.1408 67.9219 16.5728C67.9219 20.0048 65.1232 22.7877 61.6698 22.7877C58.2165 22.7877 55.4178 20.0056 55.4178 16.5728H55.3986V0H51.25V16.5728C51.25 22.2931 55.9153 26.9307 61.6698 26.9307C67.4243 26.9307 72.0897 22.2931 72.0897 16.5728C72.0897 10.8525 67.4243 6.21491 61.6698 6.21491Z" fill="white"/>
<path d="M48.6408 0H44.4922V26.1135H48.6408V0Z" fill="white"/>
<path d="M82.2125 18.6354H94.5093C94.6449 17.9688 94.7166 17.2792 94.7166 16.573C94.7166 10.8527 90.0513 6.21509 84.2968 6.21509C78.5423 6.21509 73.877 10.8527 73.877 16.573C73.877 22.2933 78.5423 26.9317 84.2968 26.9317H88.4454V22.8077H84.2968V22.7887C80.8442 22.7887 78.0447 20.0058 78.0447 16.5738C78.0447 13.1418 80.8434 10.3589 84.2968 10.3589C87.0213 10.3589 89.3329 12.0947 90.1892 14.5114H82.2133V18.6354H82.2125Z" fill="white"/>
</svg>
